Coordinates
version=1
nRows=42
nColumns=11
inDegrees=yes

Units are S.I. units (second, meters, Newtons, ...)
If the header above contains a line with 'inDegrees', this indicates whether rotational values are in degrees (yes) or radians (no).

endheader
time	pelvis_tilt	pelvis_tx	pelvis_ty	hip_flexion_l	hip_flexion_r	knee_angle_l	knee_angle_r	ankle_angle_l	ankle_angle_r	lumbar_extension
      2.48000000	      2.29034504	     -0.35992602	      0.92149044	     22.16431911	      6.35528278	    -72.91744277	    -18.47181964	    -16.28470724	      5.39641255	    -10.98955103
      2.49000000	      2.60138360	     -0.35041378	      0.92301077	     23.95894697	      4.74164978	    -73.81868121	    -17.33664188	    -15.31752752	      5.51337841	    -11.22829991
      2.50000000	      3.12265917	     -0.34076900	      0.92484594	     25.37828118	      2.73186644	    -74.41572719	    -15.84645290	    -14.54925979	      5.39576059	    -11.71620476
      2.51000000	      3.75257756	     -0.33097638	      0.92663029	     26.60183802	      0.72017344	    -74.72017546	    -14.63039880	    -14.04314341	      5.36714749	    -12.31467045
      2.52000000	      4.16622476	     -0.32152234	      0.92762821	     28.00726965	     -0.98946027	    -74.88703079	    -13.50293293	    -13.31143673	      5.52795007	    -12.72747880
      2.53000000	      4.45767469	     -0.31243702	      0.92831601	     29.45329089	     -2.45143329	    -74.70274944	    -12.53119173	    -12.95959460	      5.57452196	    -13.06647296
      2.54000000	      5.05761241	     -0.30304618	      0.92930722	     30.33546892	     -4.29738336	    -74.14661619	    -11.50706321	    -12.55547479	      5.64151156	    -13.70803864
      2.55000000	      5.43600330	     -0.29393602	      0.92960118	     31.34829827	     -5.76619478	    -73.22515145	    -10.69142142	    -11.99023902	      5.69864917	    -14.12810829
      2.56000000	      5.96908436	     -0.28462563	      0.93003338	     31.93600115	     -7.35098830	    -71.81770199	    -10.00350252	    -11.43701672	      5.77088657	    -14.70072273
      2.57000000	      6.26923890	     -0.27566026	      0.92973303	     32.62082507	     -8.46306052	    -70.12316326	     -9.70665889	    -10.64311857	      5.96710747	    -15.03236237
      2.58000000	      6.66337138	     -0.26643233	      0.92948247	     32.94030892	     -9.59734624	    -68.05563734	     -9.57522963	     -9.69108049	      6.30718312	    -15.41305813
      2.59000000	      6.96384353	     -0.25743203	      0.92890714	     33.14768294	    -10.53338900	    -65.60175189	     -9.60382903	     -9.24140753	      6.56535524	    -15.73938105
      2.60000000	      7.23683707	     -0.24819608	      0.92805636	     33.13037564	    -11.31468192	    -62.83711442	     -9.89046716	     -8.44825441	      7.01183373	    -15.97972934
      2.61000000	      7.43230029	     -0.23915471	      0.92699195	     32.99395035	    -11.84139699	    -59.72619266	    -10.46107234	     -7.93106334	      7.53984109	    -16.15436027
      2.62000000	      7.55318454	     -0.22978066	      0.92580171	     32.70556245	    -12.25654615	    -56.39460927	    -11.15446775	     -7.06024505	      8.04087080	    -16.18304248
      2.63000000	      7.70994477	     -0.22057745	      0.92440609	     32.21300962	    -12.57089405	    -52.88432303	    -12.04363342	     -6.60440948	      8.40848871	    -16.30800064
      2.64000000	      7.91404010	     -0.21112859	      0.92315441	     31.46951637	    -12.96478473	    -49.26633283	    -12.98170434	     -6.17440821	      8.86483757	    -16.45650769
      2.65000000	      8.07867816	     -0.20156415	      0.92163030	     30.65645277	    -13.26489740	    -45.64751251	    -14.00752925	     -5.67686747	      9.32043884	    -16.55857817
      2.66000000	      8.18842432	     -0.19187054	      0.92005358	     29.78915559	    -13.63962020	    -42.09504721	    -14.80393742	     -5.27228468	      9.66755318	    -16.61186806
      2.67000000	      8.26312854	     -0.18221637	      0.91830241	     28.94683034	    -13.96025924	    -38.83113485	    -15.65081816	     -4.79132956	     10.08540163	    -16.67098899
      2.68000000	      8.26825110	     -0.17259820	      0.91643150	     28.21184958	    -14.24199976	    -35.94064610	    -16.43065203	     -4.37797184	     10.45887358	    -16.66045893
      2.69000000	      8.24066011	     -0.16285660	      0.91459930	     27.55529108	    -14.53162646	    -33.58220016	    -17.14617433	     -4.09254072	     10.94180709	    -16.64257784
      2.70000000	      8.18053241	     -0.15320090	      0.91265763	     27.07929143	    -14.77235807	    -31.89639989	    -17.86495285	     -3.93669927	     11.08831382	    -16.63465210
      2.71000000	      8.05701946	     -0.14327241	      0.91068103	     26.75475316	    -15.02266209	    -30.81232605	    -18.47854187	     -4.14791509	     11.28581348	    -16.51213551
      2.72000000	      7.89372851	     -0.13315698	      0.90841265	     26.64334293	    -15.17780534	    -30.47869866	    -19.20597921	     -4.33274941	     11.40786474	    -16.36576663
      2.73000000	      7.65296065	     -0.12326446	      0.90634463	     26.60293875	    -15.27083042	    -30.44187601	    -19.86859939	     -4.45039263	     11.51102399	    -16.15437748
      2.74000000	      7.27647418	     -0.11337872	      0.90379983	     26.75020900	    -15.11859151	    -30.75182331	    -20.71616317	     -4.69185475	     11.56676176	    -15.81659384
      2.75000000	      7.09483946	     -0.10264144	      0.90169475	     26.45909946	    -15.25623167	    -30.97366671	    -21.47880805	     -5.00067722	     11.59332847	    -15.59188754
      2.76000000	      6.76937551	     -0.09212782	      0.89958913	     26.12633623	    -15.16133844	    -30.93983090	    -22.36920718	     -5.22377678	     11.50267288	    -15.24414201
      2.77000000	      6.52568486	     -0.08108592	      0.89775166	     25.39636128	    -15.15960980	    -30.52664861	    -23.26657727	     -5.56777917	     11.11069447	    -14.94625549
      2.78000000	      6.09977292	     -0.06977564	      0.89577968	     24.56953980	    -14.92643672	    -29.71111636	    -24.28510572	     -5.31840790	     10.78578004	    -14.42894955
      2.79000000	      5.67677204	     -0.05875062	      0.89412729	     23.51942822	    -14.54780547	    -28.64741808	    -25.43206234	     -3.00421234	     10.03566547	    -13.97263397
      2.80000000	      4.71963992	     -0.04837020	      0.89240248	     23.19283599	    -13.32893643	    -27.56690261	    -26.95538426	     -2.30608682	      9.44276024	    -13.00564952
      2.81000000	      3.73241802	     -0.03873642	      0.89109467	     23.43526921	    -11.84631985	    -27.32455572	    -28.73957561	     -1.72355244	      8.18512370	    -12.15824836
      2.82000000	      3.12922385	     -0.02839023	      0.89059029	     24.01865734	    -10.71829741	    -28.34427514	    -30.67361097	     -0.76837002	      7.03738526	    -11.60560669
      2.83000000	      2.47118765	     -0.01991356	      0.89057927	     25.10121483	     -9.20988391	    -29.83048405	    -32.74912437	     -0.03281384	      5.39111439	    -11.36154344
      2.84000000	      2.19874038	     -0.01017634	      0.89108036	     25.36061408	     -8.30844399	    -30.92902638	    -34.74140214	      0.72441709	      3.90565849	    -11.36539680
      2.85000000	      2.08882971	     -0.00047421	      0.89223801	     24.97035116	     -7.51361639	    -31.32709771	    -36.68118983	      1.54830842	      2.17417929	    -11.58601471
      2.86000000	      1.52365161	      0.00878402	      0.89281087	     24.82529514	     -6.00550537	    -31.19513186	    -38.87744520	      2.16081212	      0.02625512	    -11.32000858
      2.87000000	      1.17338980	      0.01842185	      0.89428471	     24.02202342	     -4.71000674	    -30.43340946	    -40.93116112	      2.69519494	     -2.49802401	    -11.28849623
      2.88000000	      0.51596469	      0.02775739	      0.89533752	     23.48167656	     -2.78568625	    -29.49196937	    -43.26987240	      3.14082866	     -5.33002834	    -10.93122028
      2.89000000	     -0.06532938	      0.03711673	      0.89660341	     22.81665355	     -0.73889102	    -28.45306587	    -45.77312648	      3.50439445	     -8.30171720	    -10.64961466
